<svg width="15" height="14" viewBox="0 0 15 14" fill="none" xmlns="http://www.w3.org/2000/svg">
<g filter="url(#filter0_d_116_73)">
<path d="M7.94999 0.268738C7.0559 0.203654 6.15828 0.331842 5.31815 0.644588C4.47802 0.957335 3.71508 1.44731 3.08119 2.08119C2.44731 2.71508 1.95733 3.47802 1.64459 4.31815C1.33184 5.15828 1.20365 6.0559 1.26874 6.94999C1.49374 10.2562 4.38124 12.75 7.69374 12.75H9.99999C10.3437 12.75 10.625 12.4687 10.625 12.125C10.625 11.7812 10.3437 11.5 9.99999 11.5H7.70624C5.37499 11.5 3.23749 9.98749 2.65624 7.73124C1.72499 4.10624 5.09999 0.724988 8.72499 1.66249C10.9875 2.23749 12.5 4.37499 12.5 6.70624V7.39374C12.5 7.88749 12.0562 8.37499 11.5625 8.37499C11.0687 8.37499 10.625 7.88749 10.625 7.39374V6.61249C10.625 5.04374 9.51249 3.63124 7.96249 3.41249C7.46934 3.33916 6.9658 3.3847 6.49381 3.54531C6.02181 3.70593 5.59502 3.97697 5.24895 4.33588C4.90288 4.69478 4.64756 5.13117 4.50424 5.6087C4.36092 6.08623 4.33375 6.59108 4.42499 7.08124C4.53461 7.67185 4.81225 8.2183 5.22464 8.65508C5.63703 9.09185 6.16664 9.4004 6.74999 9.54374C7.89999 9.81249 8.99374 9.44374 9.71249 8.71249C10.2687 9.47499 11.3812 9.87499 12.4 9.46874C13.2375 9.13749 13.75 8.28124 13.75 7.38124V6.69999C13.75 3.38124 11.2562 0.493738 7.94999 0.268738ZM7.49999 8.37499C6.46249 8.37499 5.62499 7.53749 5.62499 6.49999C5.62499 5.46249 6.46249 4.62499 7.49999 4.62499C8.53749 4.62499 9.37499 5.46249 9.37499 6.49999C9.37499 7.53749 8.53749 8.37499 7.49999 8.37499Z" fill="black"/>
</g>
<defs>
<filter id="filter0_d_116_73" x="-2.74774" y="0.252258" width="20.4977" height="20.4977" filterUnits="userSpaceOnUse" color-interpolation-filters="sRGB">
<feFlood flood-opacity="0" result="BackgroundImageFix"/>
<feColorMatrix in="SourceAlpha" type="matrix" values="0 0 0 0 0 0 0 0 0 0 0 0 0 0 0 0 0 0 127 0" result="hardAlpha"/>
<feOffset dy="4"/>
<feGaussianBlur stdDeviation="2"/>
<feComposite in2="hardAlpha" operator="out"/>
<feColorMatrix type="matrix" values="0 0 0 0 0 0 0 0 0 0 0 0 0 0 0 0 0 0 0.25 0"/>
<feBlend mode="normal" in2="BackgroundImageFix" result="effect1_dropShadow_116_73"/>
<feBlend mode="normal" in="SourceGraphic" in2="effect1_dropShadow_116_73" result="shape"/>
</filter>
</defs>
</svg>
